<?xml version="1.0" encoding="UTF-8" standalone="no"?>
<!-- Created with Inkscape (http://www.inkscape.org/) -->

<svg
   xmlns:dc="http://purl.org/dc/elements/1.1/"
   xmlns:cc="http://creativecommons.org/ns#"
   xmlns:rdf="http://www.w3.org/1999/02/22-rdf-syntax-ns#"
   xmlns:svg="http://www.w3.org/2000/svg"
   xmlns="http://www.w3.org/2000/svg"
   xmlns:sodipodi="http://sodipodi.sourceforge.net/DTD/sodipodi-0.dtd"
   xmlns:inkscape="http://www.inkscape.org/namespaces/inkscape"
   width="210mm"
   height="297mm"
   id="svg2"
   version="1.1"
   inkscape:version="0.48.5 r10040"
   sodipodi:docname="logo.svg">
  <defs
     id="defs4" />
  <sodipodi:namedview
     id="base"
     pagecolor="#ffffff"
     bordercolor="#666666"
     borderopacity="1.0"
     inkscape:pageopacity="0.0"
     inkscape:pageshadow="2"
     inkscape:zoom="0.70000001"
     inkscape:cx="484.74515"
     inkscape:cy="535.65182"
     inkscape:document-units="px"
     inkscape:current-layer="layer3"
     showgrid="false"
     inkscape:window-width="1309"
     inkscape:window-height="744"
     inkscape:window-x="57"
     inkscape:window-y="24"
     inkscape:window-maximized="1" />
  <metadata
     id="metadata7">
    <rdf:RDF>
      <cc:Work
         rdf:about="">
        <dc:format>image/svg+xml</dc:format>
        <dc:type
           rdf:resource="http://purl.org/dc/dcmitype/StillImage" />
        <dc:title />
      </cc:Work>
    </rdf:RDF>
  </metadata>
  <g
     inkscape:groupmode="layer"
     id="layer3"
     inkscape:label="Background">
    <rect
       style="fill:#de4815;fill-opacity:1;fill-rule:evenodd;stroke:none;display:inline"
       id="rect2985"
       width="128"
       height="128"
       x="198.57144"
       y="522.93365"
       ry="20.034781" />
  </g>
  <g
     inkscape:groupmode="layer"
     id="layer5"
     inkscape:label="Camada"
     style="display:inline">
    <path
       sodipodi:type="arc"
       style="fill:#ffffff;fill-opacity:1;stroke:none;display:inline"
       id="path4218"
       sodipodi:cx="647.14288"
       sodipodi:cy="103.79076"
       sodipodi:rx="101.42857"
       sodipodi:ry="101.42857"
       d="m 748.57146,103.79076 a 101.42857,101.42857 0 1 1 -202.85715,0 101.42857,101.42857 0 1 1 202.85715,0 z"
       transform="matrix(0.39646017,0,0,0.39646017,6.0050623,544.65198)" />
  </g>
  <g
     inkscape:label="big circle"
     inkscape:groupmode="layer"
     id="layer1"
     style="display:inline" />
  <g
     inkscape:groupmode="layer"
     id="layer7"
     inkscape:label="Camada#2"
     style="display:inline">
    <path
       style="fill:#de4815;fill-opacity:1;stroke:#000000;stroke-width:0;stroke-linecap:butt;stroke-linejoin:miter;stroke-miterlimit:4;stroke-opacity:1;stroke-dasharray:none"
       d="m 257.62008,626.90729 19.10648,-32.39931 -29.28127,29.80617 c 3.59334,1.56669 6.9403,2.28244 10.17479,2.59314 z"
       id="path3810"
       inkscape:connector-curvature="0"
       sodipodi:nodetypes="cccc" />
  </g>
  <g
     inkscape:groupmode="layer"
     id="layer6"
     inkscape:label="Camada#1"
     style="display:inline">
    <path
       style="fill:#de4815;fill-opacity:1;stroke:none;display:inline"
       d="m 262.57144,569.0938 c -9.22756,0 -16.71327,7.48572 -16.71327,16.71327 0,9.22756 7.48571,16.70089 16.71327,16.70089 9.22755,0 16.71327,-7.47333 16.71327,-16.70089 0,-9.22755 -7.48572,-16.71327 -16.71327,-16.71327 z m 0,2.55221 c 7.81996,0 14.16106,6.3411 14.16106,14.16106 0,7.81997 -6.3411,14.16107 -14.16106,14.16107 -7.81996,0 -14.16106,-6.3411 -14.16106,-14.16107 0,-7.81996 6.3411,-14.16106 14.16106,-14.16106 z"
       id="path4222"
       inkscape:connector-curvature="0" />
    <path
       style="fill:#de4815;fill-opacity:1;stroke:#000000;stroke-width:0;stroke-linecap:butt;stroke-linejoin:miter;stroke-miterlimit:4;stroke-opacity:1;stroke-dasharray:none"
       d="m 226.24809,567.57179 22.7198,27.5308 -17.05628,-35.8893 c -2.67379,2.8666 -4.29352,5.41205 -5.66352,8.3585 z"
       id="path3810-6"
       inkscape:connector-curvature="0"
       sodipodi:nodetypes="cccc" />
    <path
       style="fill:#de4815;fill-opacity:1;stroke:#000000;stroke-width:0;stroke-linecap:butt;stroke-linejoin:miter;stroke-miterlimit:4;stroke-opacity:1;stroke-dasharray:none;display:inline"
       d="m 298.77813,568.56624 -37.12354,0.61192 40.32957,6.35184 c -0.006,-3.92003 1.86711,-7.54019 -3.20603,-6.96376 z"
       id="path3810-6-1"
       inkscape:connector-curvature="0"
       sodipodi:nodetypes="cccc" />
  </g>
</svg>
